<svg width="24" height="24" viewBox="0 0 24 24" fill="none" xmlns="http://www.w3.org/2000/svg">
<path fill-rule="evenodd" clip-rule="evenodd" d="M7.23464 21.7843C7.14807 21.7783 7.0615 21.7736 6.97536 21.7659C6.49107 21.7205 6.04664 21.5623 5.65236 21.2773C4.97222 20.7845 4.53722 20.1292 4.36407 19.305C4.30118 18.9967 4.27999 18.6813 4.30107 18.3673C4.32449 17.9994 4.39625 17.6361 4.5145 17.2869C4.70264 16.7263 4.98593 16.2176 5.34464 15.7487C5.61476 15.3971 5.92053 15.0744 6.25707 14.7857C6.57072 14.513 6.86181 14.2153 7.1275 13.8956C7.46522 13.4949 7.77036 13.0702 8.0725 12.6425C8.33907 12.2645 8.60136 11.8839 8.88422 11.5187C9.09447 11.2412 9.32434 10.9791 9.57207 10.7345C9.88493 10.4315 10.2304 10.1752 10.6375 10.0085C10.9403 9.88432 11.2634 9.81719 11.5906 9.81045C11.9626 9.80131 12.3341 9.84064 12.6959 9.92745C13.2422 10.0608 13.7431 10.3369 14.1475 10.7276C14.4312 10.9976 14.6712 11.3036 14.8941 11.6233C15.1311 11.9627 15.3484 12.3146 15.5725 12.6622C15.8254 13.0535 16.0868 13.4387 16.3782 13.803C16.6681 14.1657 16.9897 14.5018 17.3391 14.8076C17.7622 15.1752 18.1381 15.594 18.4581 16.0543C18.7325 16.448 18.9514 16.8776 19.1086 17.331C19.2311 17.6844 19.3038 18.0531 19.3246 18.4265C19.3546 18.9973 19.2561 19.5433 18.9968 20.0567C18.7568 20.5325 18.4096 20.9152 17.9742 21.2182C17.6536 21.4415 17.3078 21.6112 16.9272 21.7055C16.7925 21.7395 16.6554 21.7634 16.5171 21.777C16.4979 21.779 16.4791 21.7819 16.4605 21.7856C16.4425 21.7955 16.4228 21.7877 16.4035 21.7899C16.3876 21.7925 16.3714 21.7856 16.3564 21.795H16.0015C15.9874 21.7852 15.9715 21.792 15.9565 21.7903H15.8815C15.5789 21.7805 15.2854 21.7175 14.9922 21.6493C14.4964 21.5336 14.0099 21.3815 13.5162 21.2559C13.1177 21.1514 12.7124 21.0743 12.3034 21.0253C12.0198 20.9953 11.7345 20.9864 11.4496 20.9987C11.2225 21.0065 10.9962 21.0416 10.7725 21.0832C10.3311 21.1663 9.89864 21.2846 9.46579 21.4029C9.00807 21.5289 8.55036 21.6536 8.0815 21.7303C7.89079 21.7612 7.70007 21.7877 7.50593 21.786C7.46607 21.7852 7.42664 21.7912 7.38636 21.7903C7.33493 21.7873 7.28479 21.7963 7.23422 21.7847M15.9814 2.15188C16.6191 2.2286 17.1068 2.55302 17.4792 3.06431C17.7342 3.41488 17.8949 3.80831 17.9944 4.22874C18.0778 4.58965 18.1131 4.96 18.0994 5.33017C18.0784 6.00616 17.9148 6.67009 17.6194 7.27845C17.4187 7.70386 17.1452 8.09085 16.8111 8.42188C16.5098 8.71674 16.1691 8.95245 15.7714 9.09945C15.4919 9.20231 15.2048 9.25374 14.9074 9.23574C14.3922 9.20617 13.9546 9.00131 13.5874 8.64388C13.2736 8.33874 13.0602 7.96931 12.9124 7.56088C12.8109 7.27594 12.7433 6.98005 12.7109 6.67931C12.6874 6.47363 12.6788 6.26652 12.6852 6.0596C12.7006 5.5716 12.7878 5.09703 12.9466 4.63588C13.1102 4.14699 13.358 3.69052 13.6791 3.28717C13.9534 2.94688 14.2735 2.65888 14.6575 2.44631C14.9366 2.28887 15.2443 2.18891 15.5626 2.15231C15.5725 2.14674 15.5832 2.14931 15.5931 2.14845H15.6235C15.6385 2.14674 15.6539 2.1536 15.6672 2.14331H15.8764C15.8896 2.15402 15.9051 2.14674 15.9196 2.14845H15.9505C15.9604 2.14845 15.9711 2.14631 15.9814 2.15188ZM1.30493 9.68574C1.31479 9.49117 1.34993 9.30002 1.40093 9.11188C1.50036 8.74631 1.66236 8.41331 1.91522 8.12831C2.18702 7.81399 2.55647 7.59999 2.96436 7.5206C3.30379 7.45374 3.63893 7.48202 3.96807 7.58402C4.34693 7.7006 4.68164 7.89945 4.9795 8.15831C5.4415 8.55902 5.77322 9.05231 6.0025 9.61631C6.1225 9.91202 6.2055 10.2177 6.2515 10.5335C6.27379 10.6865 6.2845 10.8403 6.28793 10.9955C6.2952 11.2875 6.26261 11.5792 6.19107 11.8625C6.09379 12.2417 5.93007 12.5867 5.6695 12.8825C5.38234 13.2166 4.98542 13.4374 4.55007 13.5052C4.22179 13.5583 3.89907 13.5223 3.58364 13.4203C3.15936 13.2827 2.79507 13.0462 2.4745 12.7397C2.16578 12.4425 1.91062 12.0943 1.72022 11.7103C1.52996 11.3349 1.40036 10.9318 1.33622 10.5159L1.30622 10.2939C1.2985 10.26 1.30193 10.2253 1.29336 10.1919C1.2895 10.1777 1.29164 10.1645 1.29122 10.1499C1.28864 10.1323 1.29679 10.113 1.28564 10.0955V9.82374C1.30279 9.79888 1.29422 9.77145 1.29593 9.74488C1.29764 9.72517 1.2925 9.70374 1.30493 9.68574ZM5.78479 5.33274C5.78693 4.7936 5.86364 4.30802 6.04407 3.84002C6.17993 3.48645 6.36679 3.16331 6.62693 2.88517C6.90679 2.58431 7.23936 2.36917 7.6405 2.2676C8.04164 2.16602 8.43593 2.19474 8.82336 2.33488C9.16493 2.45917 9.46279 2.65417 9.72764 2.9006C10.1498 3.29317 10.4519 3.7676 10.6675 4.29945C10.8044 4.63745 10.8994 4.98674 10.9525 5.34731C10.9831 5.5516 11.0005 5.75731 11.0048 5.96445C11.0102 6.22515 10.9919 6.48581 10.9499 6.74317C10.8604 7.28145 10.6778 7.78288 10.3521 8.22603C10.1547 8.50134 9.89835 8.72904 9.60164 8.89245C9.27174 9.07353 8.89581 9.15342 8.52079 9.12217C8.17536 9.09602 7.8565 8.98288 7.5595 8.80674C7.17207 8.57745 6.85836 8.26802 6.59693 7.90374C6.29195 7.47325 6.06907 6.99015 5.9395 6.47874C5.86579 6.19801 5.81816 5.91108 5.79722 5.6216C5.78766 5.52562 5.78351 5.42918 5.78479 5.33274ZM22.7134 10.002V10.0646C22.6898 10.5845 22.5505 11.0735 22.3264 11.5397C22.1515 11.904 21.9217 12.2392 21.6449 12.5336C21.2871 12.9129 20.8718 13.209 20.3776 13.3865C20.085 13.4949 19.7735 13.543 19.4618 13.5279C19.0093 13.5084 18.5789 13.3268 18.2494 13.0162C17.9674 12.7539 17.7818 12.4316 17.6644 12.069C17.5606 11.7456 17.5142 11.4065 17.5272 11.067C17.5504 10.3162 17.7874 9.63388 18.1988 9.00945C18.3372 8.79851 18.4969 8.60234 18.6754 8.42403C19.0426 8.05803 19.4626 7.77688 19.9602 7.61703C20.2398 7.52515 20.5345 7.48847 20.8281 7.50903C21.2695 7.53835 21.6865 7.7219 22.0062 8.0276C22.3045 8.30917 22.4931 8.65674 22.6066 9.0476C22.6696 9.26317 22.7065 9.48388 22.7138 9.70888V9.77188C22.7115 9.84858 22.7111 9.92533 22.7134 10.002Z" fill="#4796F3"/>
</svg>
