<svg width="135" height="190" viewBox="0 0 135 190" fill="none" xmlns="http://www.w3.org/2000/svg">
<g clip-path="url(#clip0_650_530)">
<path d="M173.159 0L108.287 64.8717C103.626 62.1927 97.5758 62.8396 93.5921 66.8232C90.26 70.1551 89.2641 74.9339 90.5947 79.1356C81.4413 74.4567 70.9154 73.6684 60.3207 78.1869C40.4474 88.0485 26.7358 108.567 0 110.951C2.04076 115.153 4.68334 119.838 7.92442 124.999C19.1669 126.77 30.2376 123.194 38.8879 114.369C35.5279 124.826 27.3179 132.631 16.2146 136.697C19.0955 140.538 22.3907 144.571 26.1119 148.772C38.9133 144.493 43.4908 138.636 31.5134 154.519C36.5649 159.766 41.9753 165.33 48.6235 170.012C51.5771 159.106 59.537 150.732 70.9411 146.422C62.203 154.612 58.7037 166.475 60.8605 179.187C67.4627 183.628 73.5268 187.239 79.0487 190C83.752 169.823 97.4771 148.895 111.813 129.68C116.439 119.943 115.69 109.421 110.768 99.3736C114.993 100.751 119.819 99.7665 123.177 96.4087C127.161 92.4252 127.807 86.3751 125.128 81.7136L190 16.8419L173.16 0.00126667L173.159 0Z" fill="white"/>
</g>
<defs>
<clipPath id="clip0_650_530">
<rect width="190" height="190" fill="white"/>
</clipPath>
</defs>
</svg>
