<svg width="135" height="190" viewBox="0 0 135 190" fill="none" xmlns="http://www.w3.org/2000/svg">
<path d="M11.4642 168.754H20.8489C26.7321 168.754 31.343 164.221 31.343 158.338V144.98C48.9994 146.093 74.5239 146.887 94.959 146.887C115.476 146.887 141 146.093 158.657 144.98V158.338C158.657 164.221 163.189 168.754 169.151 168.754H178.535C184.5 168.754 189.111 164.221 189.111 158.338V112.456C189.111 99.0952 186.407 91.5393 179.014 81.9986L172.333 73.3298C169.392 59.0187 164.143 43.9884 161.361 38.1052C157.143 29.1175 148.875 23.7873 138.299 22.3589C132.973 21.7211 115.557 21.2461 94.959 21.2461C74.4458 21.2461 57.0269 21.8025 51.7001 22.3589C41.1246 23.6312 32.8562 29.1175 28.6422 38.1018C25.8601 43.9884 20.608 59.0187 17.6663 73.3298L10.9858 81.9986C3.58939 91.5427 0.888672 99.0952 0.888672 112.456V158.338C0.888672 164.221 5.50296 168.754 11.4642 168.754ZM33.7315 66.7307C35.6383 57.9839 39.4553 46.6111 42.078 41.9968C44.2256 38.2646 46.5328 36.67 50.8281 36.117C56.8674 35.2416 70.388 34.7632 94.959 34.7632C119.612 34.7632 133.129 35.0821 139.175 36.117C143.389 36.7514 145.692 38.2612 147.922 42.0002C150.626 46.533 154.202 57.9805 156.268 66.7307C156.987 69.6723 155.793 70.7852 152.692 70.5477C139.494 69.7537 123.747 68.8784 94.959 68.8784C66.2555 68.8784 50.5092 69.7537 37.3076 70.5477C34.2065 70.7852 33.0937 69.6723 33.7281 66.7307M36.9853 126.292C29.4328 126.292 23.7871 120.565 23.7871 113.091C23.7871 105.535 29.4328 99.8925 36.9853 99.8925C44.5378 99.8925 50.1869 105.535 50.1869 113.091C50.1869 120.565 44.5412 126.289 36.9887 126.289M153.011 126.289C145.455 126.289 139.813 120.562 139.813 113.087C139.813 105.531 145.455 99.8891 153.011 99.8891C160.485 99.8891 166.209 105.531 166.209 113.087C166.209 120.562 160.485 126.289 153.011 126.289ZM73.8894 122.628C68.3217 122.628 64.4233 118.652 64.4233 113.084C64.4233 107.438 68.3217 103.543 73.8894 103.543H116.113C121.678 103.543 125.576 107.438 125.576 113.084C125.576 118.648 121.678 122.628 116.11 122.628H73.8894Z" fill="white"/>
</svg>
