<svg width="229" height="183" viewBox="0 0 229 183" fill="none" xmlns="http://www.w3.org/2000/svg">
<path fill-rule="evenodd" clip-rule="evenodd" d="M104.808 60.2378C104.818 60.2378 104.828 60.2379 104.838 60.2379C110.503 60.2379 115.096 55.6452 115.096 49.9799H112.129C112.129 54.0069 108.865 57.2714 104.838 57.2714V60.2378H104.808Z" fill="#4796F3"/>
<path fill-rule="evenodd" clip-rule="evenodd" d="M112.129 18.2735V57.2714H73.1313V60.2379H112.129H115.096V57.2714V18.2735H112.129Z" fill="#4796F3"/>
<circle cx="113.23" cy="18.2735" r="1.86508" fill="#4796F3"/>
<circle cx="73.1311" cy="58.3727" r="1.86508" fill="#4796F3"/>
<path fill-rule="evenodd" clip-rule="evenodd" d="M104.808 60.2378C104.818 60.2378 104.828 60.2379 104.838 60.2379C110.503 60.2379 115.096 55.6452 115.096 49.9799H112.129C112.129 54.0069 108.865 57.2714 104.838 57.2714V60.2378H104.808Z" fill="#4796F3"/>
<path fill-rule="evenodd" clip-rule="evenodd" d="M112.129 18.2735V57.2714H73.1313V60.2379H112.129H115.096V57.2714V18.2735H112.129Z" fill="#4796F3"/>
<circle cx="113.23" cy="18.2735" r="1.86508" fill="#4796F3"/>
<circle cx="73.1311" cy="58.3727" r="1.86508" fill="#4796F3"/>
<path fill-rule="evenodd" clip-rule="evenodd" d="M121.623 56.5076C115.958 56.5076 111.365 61.1003 111.365 66.7656H114.332C114.332 62.7386 117.596 59.4741 121.623 59.4741V56.5076Z" fill="#4796F3"/>
<path fill-rule="evenodd" clip-rule="evenodd" d="M114.331 98.472V59.4741L153.329 59.4741V56.5076L114.331 56.5076H111.365V59.4741V98.472H114.331Z" fill="#4796F3"/>
<circle cx="113.23" cy="98.472" r="1.86508" transform="rotate(180 113.23 98.472)" fill="#4796F3"/>
<circle cx="153.329" cy="58.3728" r="1.86508" transform="rotate(180 153.329 58.3728)" fill="#4796F3"/>
<path fill-rule="evenodd" clip-rule="evenodd" d="M111.365 49.9604C111.365 49.9669 111.365 49.9734 111.365 49.9799C111.365 55.6452 115.958 60.2379 121.623 60.2379V57.2715C117.596 57.2715 114.331 54.0069 114.331 49.9799H111.365V49.9604Z" fill="#4796F3"/>
<path fill-rule="evenodd" clip-rule="evenodd" d="M153.329 57.2714H114.331V18.2735H111.365V57.2714V60.2378H114.331H153.329V57.2714Z" fill="#4796F3"/>
<circle cx="153.329" cy="58.3727" r="1.86508" transform="rotate(90 153.329 58.3727)" fill="#4796F3"/>
<circle cx="113.23" cy="18.2735" r="1.86508" transform="rotate(90 113.23 18.2735)" fill="#4796F3"/>
<path fill-rule="evenodd" clip-rule="evenodd" d="M115.096 66.7852C115.096 66.7787 115.096 66.7722 115.096 66.7657C115.096 61.1004 110.503 56.5078 104.838 56.5078V59.4742C108.865 59.4742 112.129 62.7387 112.129 66.7657H115.096V66.7852Z" fill="#4796F3"/>
<path fill-rule="evenodd" clip-rule="evenodd" d="M73.1308 59.4742H112.129V98.472H115.095V59.4742V56.5077H112.129H73.1308V59.4742Z" fill="#4796F3"/>
<circle cx="73.1311" cy="58.3728" r="1.86508" transform="rotate(-90 73.1311 58.3728)" fill="#4796F3"/>
<circle cx="113.23" cy="98.472" r="1.86508" transform="rotate(-90 113.23 98.472)" fill="#4796F3"/>
<path d="M146.801 79.355C158.924 86.8153 191.936 110.502 227 145.565" stroke="#4796F3" stroke-width="3.5" stroke-linecap="round" stroke-linejoin="round"/>
<path d="M80.5912 42.053C-58.1708 -19.8677 -144.752 2.52648 -180.884 26.3584C-233.167 60.8432 -247.629 123.138 -194.974 180.613" stroke="#4796F3" stroke-width="3.5" stroke-linecap="round" stroke-linejoin="round"/>
</svg>
