<svg width="267" height="193" viewBox="0 0 267 193" fill="none" xmlns="http://www.w3.org/2000/svg">
<path d="M89.1493 144.098L89.1438 144.163L89.131 144.227C87.3293 153.236 86.5426 156.588 85.9856 158.909C85.9552 159.036 85.9254 159.16 85.8962 159.281C85.3995 161.347 85.0707 162.715 84.2472 167.283C84.2402 167.323 84.2627 167.371 84.3112 167.389C87.5326 168.597 90.5491 169.862 92.7568 171.637C95.0325 173.467 96.4719 175.857 96.4796 179.199C96.4839 181.074 95.7507 182.714 94.3704 183.976C93.0165 185.214 91.0947 186.042 88.7561 186.47C85.1866 187.123 82.7441 186.607 78.9372 185.802C78.429 185.695 77.8966 185.582 77.3339 185.466L77.2704 185.453L77.2087 185.433L65.9901 181.772L49.2899 177.442L48.3739 177.205L48.432 176.26L50.9112 135.973L50.9569 135.232L51.6522 134.97L89.4599 120.714L91.161 120.073L91.0093 121.884L89.1493 144.098Z" fill="white" stroke="black" stroke-width="2.29646"/>
<path d="M182.004 148.703L182.232 149.123L182.095 149.58C181.262 152.354 180.294 155.739 179.371 158.973C179.29 159.26 179.208 159.546 179.127 159.83C178.297 162.743 177.517 165.478 176.93 167.444C176.922 167.47 176.922 167.501 176.943 167.54C176.966 167.582 177.006 167.618 177.059 167.636C183.37 169.82 186.989 174.617 187.659 177.963C187.951 179.425 187.768 181.13 186.745 182.656C185.719 184.185 183.938 185.405 181.273 186.071C179.895 186.416 178.005 186.529 175.973 186.49C173.92 186.45 171.643 186.253 169.449 185.94C167.257 185.627 165.123 185.194 163.363 184.674C162.483 184.414 161.678 184.126 160.996 183.812C160.332 183.506 159.709 183.14 159.261 182.692C158.975 182.406 158.753 182.031 158.574 181.665C158.387 181.283 158.209 180.83 158.039 180.328C157.698 179.323 157.361 178.043 157.03 176.572C156.367 173.627 155.709 169.825 155.092 165.736C153.858 157.554 152.779 148.145 152.162 141.98L152.1 141.36L152.586 140.97L169.1 127.711L170.173 126.849L170.828 128.06L182.004 148.703Z" fill="white" stroke="black" stroke-width="2.29646"/>
<path d="M207.165 13.2627L207.919 14.129L207.165 13.2627C207.977 12.5562 208.889 12.1458 209.874 12.1836C210.846 12.221 211.684 12.6873 212.375 13.3171C213.719 14.5411 214.826 16.6716 215.743 19.0669C217.605 23.927 218.949 30.6081 219.645 35.7165C219.905 37.6269 218.429 39.2746 216.55 39.3282L199.629 39.8117C197.629 39.8688 195.982 38.0822 196.436 36.0265C197.192 32.6083 198.553 28.0905 200.364 23.8649C202.158 19.6766 204.461 15.6155 207.165 13.2627Z" fill="white" stroke="black" stroke-width="2.29646" stroke-linecap="round"/>
<path d="M44.2473 185.248L44.2148 185.223L44.1841 185.195C43.6287 184.695 43.1901 183.935 42.8232 183.093C42.4449 182.225 42.0933 181.15 41.7642 179.912C41.1054 177.433 40.5098 174.195 39.9812 170.42C38.9229 162.864 38.1179 153.048 37.6304 142.615C36.6565 121.776 36.9418 98.311 39.056 85.3631C39.0611 85.3322 39.057 85.312 39.0473 85.291C39.0353 85.2647 39.0088 85.2279 38.9619 85.1941C38.8605 85.1213 38.7601 85.1219 38.6934 85.1527C31.8421 88.3171 25.3536 88.014 21.0381 84.9235C16.668 81.7939 14.8756 76.0623 16.9493 69.1812C16.9643 69.1313 16.9608 69.0678 16.921 69.0002C16.8804 68.9311 16.818 68.8863 16.7523 68.8704C9.60182 67.1401 5.45909 61.0333 5.40598 54.8923C5.35207 48.6594 9.48962 42.5588 18.412 40.8129C18.4649 40.8026 18.5186 40.767 18.5538 40.6991C18.5888 40.6318 18.5854 40.5719 18.5651 40.5272C13.9393 30.3911 15.6668 22.2067 20.5871 17.8729C25.4933 13.5516 33.1681 13.4436 39.5175 18.6622C39.5569 18.6946 39.7546 18.7832 40.1066 18.6588C40.4565 18.5351 40.6056 18.3213 40.6308 18.2278C41.6499 14.4465 44.2136 10.7627 47.2117 7.96661C50.1906 5.18844 53.7791 3.12057 56.9702 2.8178C58.5949 2.66364 60.1865 2.96406 61.4991 3.94916C62.8102 4.93322 63.6954 6.48978 64.1266 8.56027C64.9759 12.6386 64.1415 19.0613 60.8626 28.488C57.7475 37.4439 55.6614 44.3248 54.3862 49.6064C53.1071 54.9041 52.6616 58.5231 52.7797 60.9823C52.8974 63.4327 53.5606 64.5345 54.2979 65.0916C55.0885 65.6889 56.2488 65.8922 57.8927 65.895C90.4515 63.8732 113.372 64.1231 129.563 64.7429C135.34 64.9641 140.266 65.2327 144.454 65.4611C146.13 65.5525 147.688 65.6374 149.134 65.7103C154.227 65.9668 157.903 66.0707 160.61 65.8068C162 65.6714 163.243 64.7496 164.363 63.0274C165.483 61.3068 166.37 58.9467 167.07 56.3085C168.383 51.3549 168.963 45.7184 169.325 42.1921C169.347 41.9823 169.367 41.7799 169.388 41.5856C169.566 36.0274 170.034 28.1873 171.305 22.1835C171.936 19.2054 172.795 16.5139 174.024 14.7955C174.647 13.9242 175.441 13.1957 176.452 12.8919C177.499 12.5773 178.576 12.7781 179.613 13.373C183.959 15.8664 187.565 20.032 190.43 24.2867C193.305 28.556 195.495 33.0099 196.971 36.1726L195.931 36.6582L196.971 36.1726C197.139 36.5307 197.503 36.749 197.897 36.7277C204.956 36.3467 215.221 36.1285 225.209 36.5906C235.149 37.0504 244.98 38.1891 251.067 40.5955C255.079 42.1816 257.877 44.5455 259.639 47.3696C261.396 50.1864 262.078 53.3874 261.983 56.5849C261.797 62.9396 258.547 69.4311 254.255 73.3504C248.728 78.3966 239.646 82.0671 230.06 84.4887C220.437 86.9195 210.131 88.1348 202.008 88.1639C201.483 88.1658 201.044 88.5639 200.991 89.0875C200.224 96.6491 198.063 108.394 195.032 116.479C194.887 116.866 194.887 117.554 195.127 118.352C195.365 119.14 195.762 119.787 196.126 120.104C198.725 122.37 202.652 126.361 206.409 130.566C210.16 134.763 213.81 139.252 215.816 142.512C218.426 146.753 219.676 152.827 219.832 158.698C219.989 164.568 219.058 170.47 217.096 174.394C216.08 176.427 214.736 177.776 213.16 178.524C211.593 179.267 209.909 179.362 208.296 179.089C205.114 178.552 202 176.556 199.93 174.745C198.393 173.4 197.718 171.378 197.415 169.328C197.11 167.26 197.154 164.952 197.231 162.84C197.243 162.504 197.256 162.174 197.269 161.85C197.338 160.088 197.399 158.526 197.292 157.279C197.229 156.544 197.113 156.021 196.961 155.68C196.82 155.361 196.696 155.301 196.631 155.28C194.822 154.677 175.508 148.623 154.816 142.53C154.638 142.477 154.448 142.477 154.265 142.532C142.1 146.159 127.251 147.121 113.896 146.75C100.542 146.38 88.5586 144.673 82.0971 142.891C81.6015 142.755 81.11 142.978 80.8967 143.394L67.4815 169.597C67.2101 170.127 67.4733 170.974 68.1985 171.309C69.8645 172.077 71.8972 173.219 73.7082 174.606C75.4957 175.975 77.1866 177.672 78.0051 179.582C78.9362 181.754 79.6063 184.187 78.6017 186.297C77.5746 188.454 75.0582 189.77 70.9709 190.399C59.0095 192.239 50.0896 189.792 44.2473 185.248Z" fill="white" stroke="black" stroke-width="2.29646" stroke-linecap="round"/>
<path d="M214.104 52.9316C214.423 55.6456 213.994 59.7313 211.911 62.5901C210.843 64.0559 209.327 65.2106 207.282 65.6377C205.257 66.0605 202.841 65.7439 199.997 64.5252C197.072 63.2717 195.193 61.5395 194.233 59.5435C193.272 57.546 193.3 55.4239 193.926 53.5282C194.549 51.6438 195.771 49.95 197.271 48.7227C198.766 47.4992 200.615 46.6788 202.515 46.6788C205.663 46.6788 208.363 46.8931 210.365 47.7639C211.394 48.2114 212.27 48.8449 212.924 49.7327C213.578 50.6192 213.958 51.6896 214.104 52.9316Z" fill="white" stroke="black" stroke-width="2.29646" stroke-linecap="round"/>
<path d="M211.668 58.8576C210.057 59.3367 207.994 59.6736 206.125 59.279C205.175 59.0784 204.241 58.6814 203.457 57.9869C202.665 57.2864 202.083 56.3344 201.765 55.1227C200.609 50.7183 201.997 48.1722 203.743 47.126C204.604 46.6097 205.536 46.8094 206.134 47.0781L211.022 49.2763C211.949 49.6933 212.627 50.5212 212.853 51.5125L213.699 55.2251C214.036 56.7047 213.294 58.374 211.668 58.8576Z" fill="black" stroke="black" stroke-width="2.29646" stroke-linecap="round"/>
<path d="M263.432 41.8095C263.042 45.4016 260.588 48.5959 257.846 50.933C255.098 53.2752 251.825 54.9598 249.435 55.4021C248.295 55.613 247.092 55.0808 246.59 53.9248C246.009 52.5875 245.585 50.5328 245.316 48.2845C245.043 46.007 244.918 43.4258 244.982 40.9775C245.046 38.5425 245.297 36.1754 245.806 34.3533C246.059 33.4466 246.394 32.6045 246.853 31.948C247.313 31.2886 247.983 30.7023 248.906 30.589C250.09 30.4436 251.095 30.8208 251.881 31.494C252.634 32.1384 253.164 33.0293 253.542 33.9271C254.016 35.0515 254.306 36.3205 254.469 37.4652C254.929 37.227 255.413 37.0011 255.906 36.8013C257.006 36.3553 258.227 36.0082 259.375 35.9967C260.54 35.985 261.771 36.3269 262.601 37.4186C263.396 38.464 263.632 39.9572 263.432 41.8095Z" fill="black" stroke="black" stroke-width="2.29646" stroke-linecap="round"/>
</svg>
