<svg width="267" height="219" viewBox="0 0 267 219" fill="none" xmlns="http://www.w3.org/2000/svg">
<path d="M55.3115 137.672L55.3805 137.094L55.8873 136.808L86.5305 119.517L88.3858 118.471L88.2403 120.596L85.1413 165.841L85.1045 166.378L84.6689 166.693L74.8492 173.799C71.0866 193.479 64.576 202.57 60.2975 206.238C55.6647 210.209 49.1223 211.495 43.9132 210.844C38.5797 210.177 35.4812 207.446 34.2891 203.87C33.7268 202.183 33.9481 200.633 34.7117 199.263C35.4485 197.941 36.6634 196.83 38.0303 195.87C40.1187 194.404 42.8342 193.116 45.3367 191.93C46.0775 191.579 46.7997 191.237 47.4814 190.901C47.4888 190.898 47.494 190.894 47.4972 190.892C48.3575 188.714 49.1732 185.277 49.9382 181.034C50.7002 176.807 51.3994 171.856 52.0441 166.701C52.8008 160.65 53.4746 154.388 54.0874 148.693C54.5237 144.639 54.9291 140.872 55.3115 137.672Z" fill="white" stroke="black" stroke-width="2.29646" stroke-linecap="round"/>
<path d="M49.3916 62.2657C48.7103 58.8737 47.5007 54.3239 45.8144 50.0511C44.1445 45.8197 41.9416 41.6871 39.1953 39.2979C38.3657 38.5763 37.4195 38.1872 36.4009 38.2909C35.4173 38.3912 34.5771 38.931 33.885 39.6172C32.5231 40.9675 31.36 43.2583 30.3759 45.8407C28.3834 51.069 26.8884 58.1482 26.143 63.3869C25.8556 65.4065 27.5128 67.0945 29.4874 66.9817L46.4518 66.0123C48.3341 65.9047 49.7778 64.1884 49.3916 62.2657Z" fill="white" stroke="black" stroke-width="2.29646" stroke-linecap="round"/>
<path d="M163.885 165.746L163.853 165.92L163.875 166.096C164.418 170.405 165.725 175.709 166.982 180.462C167.319 181.735 167.65 182.963 167.963 184.124C168.831 187.337 169.557 190.027 169.855 191.678C169.851 191.681 169.844 191.686 169.836 191.69C166.807 193.153 164.057 194.588 162.077 196.47C160.033 198.413 158.816 200.822 158.808 204.124C158.804 205.964 159.45 207.577 160.782 208.826C162.083 210.045 163.953 210.84 166.282 211.266C167.207 211.435 168.804 211.421 170.436 211.259C172.044 211.099 173.845 210.779 175.281 210.256L187.669 208.425L188.23 208.342L188.505 207.847L194.703 196.691L194.808 196.501L194.837 196.287L197.936 173.354L197.954 173.22L197.941 173.086L194.842 142.096L194.756 141.238L193.907 141.081L170.355 136.743L169.224 136.534L169.017 137.665L163.885 165.746Z" fill="white" stroke="black" stroke-width="2.29646"/>
<path d="M66.7492 39.4083C62.3822 41.9136 58.7621 46.107 55.8904 50.3833C53.0087 54.6745 50.8181 59.1452 49.3483 62.2983C49.193 62.6314 48.86 62.844 48.4944 62.845C35.4701 62.8812 28.5867 63.4902 15.8919 66.583C12.1887 67.4852 9.91469 70.0413 8.74727 73.3531C7.59776 76.6141 7.49825 80.6402 8.05327 84.7282C9.1602 92.881 12.9496 101.802 17.1816 106.36C20.3339 109.755 23.4838 111.812 27.7413 112.962C31.9311 114.093 37.1447 114.328 44.3775 114.219C44.8986 114.211 45.4614 114.616 45.6495 115.252C46.6349 118.582 49.1939 124.575 52.5323 131.822C55.8836 139.096 60.0567 147.71 64.3082 156.32C68.5604 164.931 72.894 173.545 76.5671 180.82C77.4659 182.601 78.3249 184.3 79.1333 185.9C81.6308 190.842 83.6459 194.829 84.8628 197.292C84.98 197.529 84.9561 197.725 84.9036 197.837C84.8586 197.933 84.7714 198.025 84.5757 198.051C84.3161 198.085 84.0377 198.116 83.7449 198.148C81.3274 198.416 77.9215 198.792 75.9073 202.317C75.3565 203.281 74.6697 204.727 74.3794 206.345C74.0873 207.974 74.1849 209.865 75.3291 211.581C75.8937 212.428 76.7765 213.086 77.775 213.597C78.7846 214.114 79.9898 214.519 81.2977 214.823C83.9135 215.429 87.0587 215.652 90.1457 215.458C93.2268 215.263 96.328 214.648 98.8298 213.521C101.31 212.404 103.399 210.686 104.047 208.186C105.66 201.961 105.59 194.271 105.04 187.227C104.688 182.702 104.122 178.308 103.66 174.728C103.408 172.773 103.188 171.061 103.05 169.703C103.004 169.242 103.408 168.787 104.037 168.903C119.092 171.692 133.856 171.781 146.408 170.125C158.93 168.473 169.362 165.068 175.681 160.78C176.036 160.539 176.507 160.494 176.923 160.643C177.332 160.79 177.589 161.082 177.655 161.435L184.571 198.221C184.658 198.683 184.373 199.183 183.837 199.346C181.222 200.141 177.453 201.747 175.794 205.617C174.802 207.933 174.508 210.394 175.899 212.476C177.251 214.5 179.968 215.804 184.068 216.435C195.927 218.259 202.358 215.592 204.897 210.926C205.518 209.785 206.204 207.796 206.919 205.203C207.643 202.58 208.422 199.246 209.209 195.353C210.784 187.565 212.398 177.5 213.674 166.322C216.225 143.983 217.436 117.106 214.237 95.0462C214.218 94.9149 214.262 94.5303 214.626 93.7745C214.968 93.0652 215.507 92.1944 216.22 91.1669C217.311 89.5951 218.736 87.7586 220.33 85.7025C220.824 85.0657 221.334 84.4077 221.856 83.7301C226.213 78.071 231.323 71.1034 233.563 64.353C238.379 49.8368 238.594 38.1909 235.818 29.0328C233.038 19.8636 227.293 13.2993 220.401 8.90399C213.523 4.5179 205.504 2.28871 198.107 1.74263C190.733 1.19828 183.842 2.31773 179.248 4.77866C172.433 8.42954 169.402 13.7335 168.811 18.5411C168.518 20.9269 168.828 23.1862 169.574 25.0363C170.313 26.8698 171.523 28.394 173.101 29.1412C175.635 30.3416 178.245 30.0851 180.812 29.3536C182.095 28.9878 183.406 28.4919 184.724 27.9706C185.068 27.8348 185.411 27.6976 185.755 27.5601C186.747 27.163 187.748 26.7628 188.784 26.385C191.56 25.372 194.45 24.5744 197.552 24.6002C200.618 24.6258 203.957 25.4578 207.637 27.8021C212.249 31.421 214.453 35.6816 215.064 40.1639C215.681 44.6966 214.679 49.5462 212.709 54.2821C208.761 63.7744 201.063 72.4816 195.745 76.618C195.593 76.7362 195.42 76.7949 195.19 76.7873C184.18 76.4233 165.293 79.1855 147.139 82.1566C142.85 82.8586 138.601 83.5722 134.501 84.261C121.15 86.5037 109.367 88.483 102.856 88.938C94.6181 89.5136 88.6411 86.3283 84.4677 81.9415C80.2627 77.5217 77.8877 71.8722 76.9867 67.6307C76.9771 67.5854 76.9717 67.542 76.9699 67.4869C76.7873 61.9096 76.3132 54.0935 75.0368 48.1244C74.4052 45.1711 73.5453 42.5041 72.3179 40.8032C71.6951 39.9402 70.9023 39.2203 69.8944 38.9226C68.8516 38.6145 67.7805 38.8167 66.7492 39.4083Z" fill="white" stroke="black" stroke-width="2.29646" stroke-linecap="round"/>
<path d="M3.44917 71.3644C3.88925 73.8001 5.65649 75.8366 7.54899 77.2849C9.45288 78.7419 11.6926 79.7654 13.4041 80.0682C14.611 80.2817 15.83 79.6079 16.1818 78.349C16.745 76.3333 16.8421 72.6492 16.5054 69.511C16.3357 67.9296 16.0467 66.3912 15.6059 65.2083C15.3869 64.6205 15.1061 64.0528 14.733 63.6073C14.3559 63.157 13.7994 62.7374 13.0546 62.6991C12.1376 62.6519 11.381 62.9998 10.8172 63.5559C10.285 64.0809 9.94733 64.7645 9.72629 65.4147C9.50737 66.0587 9.37438 66.7557 9.30047 67.416C9.11897 67.3465 8.9344 67.2809 8.74823 67.2203C7.96723 66.9664 7.07987 66.7768 6.24229 66.8277C5.38731 66.8797 4.44473 67.2001 3.85298 68.105C3.29308 68.9613 3.2189 70.0898 3.44917 71.3644Z" fill="black" stroke="black" stroke-width="2.29646" stroke-linecap="round"/>
<path d="M33.191 78.9671C32.8717 81.6813 33.3013 85.7672 35.3844 88.6261C36.4524 90.092 37.9679 91.2467 40.0137 91.6739C42.0387 92.0966 44.4547 91.78 47.2985 90.5612C50.2207 89.3089 52.1201 87.5813 53.1139 85.5955C54.1093 83.6064 54.1317 81.4848 53.5321 79.5795C52.3622 75.8624 48.722 72.7141 44.7804 72.7141C41.8673 72.7141 39.1814 72.9312 37.1294 73.7935C36.082 74.2337 35.1617 74.8569 34.4649 75.736C33.7642 76.62 33.3402 77.6989 33.191 78.9671Z" fill="white" stroke="black" stroke-width="2.29646" stroke-linecap="round"/>
<path d="M34.6752 81.8996L35.6667 81.3205L34.6752 81.8996C36.1217 84.3759 38.36 85.756 40.6051 85.6499C42.9109 85.5408 44.8154 83.886 45.5311 81.1583C46.1399 78.8383 45.8145 77.0858 44.9354 75.8145C44.0884 74.5895 42.8532 73.9978 42.0027 73.7019C41.2526 73.4409 40.4877 73.54 39.8636 73.8057L36.4705 75.2504C35.3912 75.7099 34.6464 76.7189 34.5251 77.8856L34.2985 80.0651C34.2365 80.6617 34.3339 81.3153 34.6752 81.8996Z" fill="black" stroke="black" stroke-width="2.29646" stroke-linecap="round"/>
<path d="M58.9303 84.5052L65.748 86.3646" stroke="black" stroke-width="2.29646" stroke-linecap="round"/>
<path d="M55.5404 91.9428L61.4606 95.8017" stroke="black" stroke-width="2.29646" stroke-linecap="round"/>
</svg>
