<svg width="493" height="160" viewBox="0 0 493 160" fill="none" xmlns="http://www.w3.org/2000/svg">
<path fill-rule="evenodd" clip-rule="evenodd" d="M167.149 78.7464C159.536 78.7464 153.365 84.9175 153.365 92.5299H157.365C157.365 87.1267 161.745 82.7464 167.149 82.7464V78.7464Z" fill="white"/>
<path fill-rule="evenodd" clip-rule="evenodd" d="M153.365 135.133H157.365V82.7464H209.752V78.7464H157.365H153.365V82.7464V135.133Z" fill="white"/>
<circle cx="155.871" cy="135.133" r="2.50609" transform="rotate(180 155.871 135.133)" fill="white"/>
<circle cx="209.752" cy="81.2524" r="2.50609" transform="rotate(180 209.752 81.2524)" fill="white"/>
<path fill-rule="evenodd" clip-rule="evenodd" d="M167.149 78.7464C159.536 78.7464 153.365 84.9175 153.365 92.5299H157.365C157.365 87.1267 161.745 82.7464 167.149 82.7464V78.7464Z" fill="white"/>
<path fill-rule="evenodd" clip-rule="evenodd" d="M153.365 135.133H157.365V82.7464H209.752V78.7464H157.365H153.365V82.7464V135.133Z" fill="white"/>
<circle cx="155.871" cy="135.133" r="2.50609" transform="rotate(180 155.871 135.133)" fill="white"/>
<circle cx="209.752" cy="81.2524" r="2.50609" transform="rotate(180 209.752 81.2524)" fill="white"/>
<path fill-rule="evenodd" clip-rule="evenodd" d="M144.594 83.7587C152.206 83.7587 158.378 77.5876 158.378 69.9752H154.378C154.378 75.3785 149.997 79.7587 144.594 79.7587V83.7587Z" fill="white"/>
<path fill-rule="evenodd" clip-rule="evenodd" d="M154.378 27.3716V79.7586H101.991V83.7586H154.378H158.378V79.7586V27.3716H154.378ZM101.991 -29.0154L158.378 -29.0154H154.378L101.991 -29.0154V-29.0154Z" fill="white"/>
<circle cx="155.871" cy="27.3716" r="2.50609" fill="white"/>
<circle cx="101.99" cy="81.2524" r="2.50609" fill="white"/>
<path fill-rule="evenodd" clip-rule="evenodd" d="M158.377 92.5297C158.377 84.9173 152.206 78.7462 144.594 78.7462V82.7462C149.997 82.7462 154.377 87.1264 154.377 92.5297H158.377Z" fill="white"/>
<path fill-rule="evenodd" clip-rule="evenodd" d="M101.991 82.7464H154.378V135.133H158.378V82.7464V78.7464H154.378H101.991V82.7464Z" fill="white"/>
<circle cx="101.991" cy="81.2524" r="2.50609" transform="rotate(-90 101.991 81.2524)" fill="white"/>
<circle cx="155.871" cy="135.133" r="2.50609" transform="rotate(-90 155.871 135.133)" fill="white"/>
<path fill-rule="evenodd" clip-rule="evenodd" d="M153.365 69.9752C153.365 77.5876 159.537 83.7586 167.149 83.7586V79.7586C161.746 79.7586 157.365 75.3784 157.365 69.9752H153.365Z" fill="white"/>
<path fill-rule="evenodd" clip-rule="evenodd" d="M209.752 79.7587H157.365V27.3717H153.365V79.7587V83.7587H157.365H209.752V79.7587ZM266.139 27.3717L266.139 83.7587V79.7587V27.3717H266.139Z" fill="white"/>
<circle cx="209.752" cy="81.2525" r="2.50609" transform="rotate(90 209.752 81.2525)" fill="white"/>
<circle cx="155.871" cy="27.3716" r="2.50609" transform="rotate(90 155.871 27.3716)" fill="white"/>
<path d="M110.762 53.0591C94.4722 43.0347 50.1145 11.2074 3.00001 -35.9071" stroke="white" stroke-width="5" stroke-linecap="round" stroke-linejoin="round"/>
<path d="M199.728 103.181C386.181 186.383 502.519 156.293 551.069 124.27C621.322 77.933 640.753 -5.77209 570.003 -83" stroke="white" stroke-width="5" stroke-linecap="round" stroke-linejoin="round"/>
</svg>
