<svg width="445" height="191" viewBox="0 0 445 191" fill="none" xmlns="http://www.w3.org/2000/svg">
<path fill-rule="evenodd" clip-rule="evenodd" d="M278.203 81.2536C278.212 81.2536 278.221 81.2536 278.23 81.2536C285.842 81.2536 292.013 75.0826 292.013 67.4702H288.013C288.013 72.8734 283.633 77.2536 278.23 77.2536V81.2536H278.203Z" fill="white"/>
<path fill-rule="evenodd" clip-rule="evenodd" d="M288.014 24.8665V77.2536H235.627V81.2536H288.014H292.014V77.2536V24.8665H288.014Z" fill="white"/>
<circle cx="289.507" cy="24.8665" r="2.50609" fill="white"/>
<circle cx="235.626" cy="78.7474" r="2.50609" fill="white"/>
<path fill-rule="evenodd" clip-rule="evenodd" d="M278.203 81.2536C278.212 81.2536 278.221 81.2536 278.23 81.2536C285.842 81.2536 292.013 75.0826 292.013 67.4702H288.013C288.013 72.8734 283.633 77.2536 278.23 77.2536V81.2536H278.203Z" fill="white"/>
<path fill-rule="evenodd" clip-rule="evenodd" d="M288.014 24.8665V77.2536H235.627V81.2536H288.014H292.014V77.2536V24.8665H288.014Z" fill="white"/>
<circle cx="289.507" cy="24.8665" r="2.50609" fill="white"/>
<circle cx="235.626" cy="78.7474" r="2.50609" fill="white"/>
<path fill-rule="evenodd" clip-rule="evenodd" d="M300.785 76.2412C293.173 76.2412 287.002 82.4123 287.002 90.0247H291.002C291.002 84.6214 295.382 80.2412 300.785 80.2412V76.2412Z" fill="white"/>
<path fill-rule="evenodd" clip-rule="evenodd" d="M291.001 132.628V80.2412H343.388V76.2412H291.001H287.001V80.2412V132.628H291.001Z" fill="white"/>
<circle cx="289.508" cy="132.628" r="2.50609" transform="rotate(180 289.508 132.628)" fill="white"/>
<circle cx="343.388" cy="78.7474" r="2.50609" transform="rotate(180 343.388 78.7474)" fill="white"/>
<path fill-rule="evenodd" clip-rule="evenodd" d="M287.002 67.4701C287.002 75.0825 293.173 81.2536 300.785 81.2536V77.2536C295.382 77.2536 291.002 72.8734 291.002 67.4701H287.002Z" fill="white"/>
<path fill-rule="evenodd" clip-rule="evenodd" d="M343.388 77.2535H291.001V24.8665H287.001V77.2535V81.2535H291.001H343.388V77.2535Z" fill="white"/>
<circle cx="343.388" cy="78.7474" r="2.50609" transform="rotate(90 343.388 78.7474)" fill="white"/>
<circle cx="289.508" cy="24.8665" r="2.50609" transform="rotate(90 289.508 24.8665)" fill="white"/>
<path fill-rule="evenodd" clip-rule="evenodd" d="M292.014 90.0247C292.014 82.4123 285.843 76.2412 278.23 76.2412V80.2412C283.633 80.2412 288.014 84.6214 288.014 90.0247H292.014Z" fill="white"/>
<path fill-rule="evenodd" clip-rule="evenodd" d="M179.24 132.628V76.2412H179.24V80.2412V132.628H179.24ZM235.627 80.2412H288.014V132.628H292.014V80.2412V76.2412H288.014H235.627V80.2412Z" fill="white"/>
<circle cx="235.627" cy="78.7473" r="2.50609" transform="rotate(-90 235.627 78.7473)" fill="white"/>
<circle cx="289.507" cy="132.628" r="2.50609" transform="rotate(-90 289.507 132.628)" fill="white"/>
<path d="M334.617 106.941C350.907 116.965 395.264 148.793 442.379 195.907" stroke="white" stroke-width="5" stroke-linecap="round" stroke-linejoin="round"/>
<path d="M245.651 56.8188C59.1977 -26.3834 -57.1401 3.70742 -105.691 35.7301C-175.943 82.067 -195.375 165.772 -124.624 243" stroke="white" stroke-width="5" stroke-linecap="round" stroke-linejoin="round"/>
</svg>
