<svg width="135" height="156" viewBox="0 0 135 156" fill="none" xmlns="http://www.w3.org/2000/svg">
<g clip-path="url(#clip0_650_544)">
<path d="M72.5308 -0.356079C39.2855 -0.324737 22.0915 0.270771 11.1778 11.1153C0.271995 21.9754 -0.326879 39.0649 -0.358398 72.1234H38.3635C35.5328 68.6052 33.4982 64.5215 32.3984 60.1506C28.1669 43.2883 43.5327 28.0089 60.4903 32.2166C64.9976 33.3371 69.0794 35.3978 72.5308 38.1481V-0.356079ZM-0.358398 83.8768C-0.326879 116.927 0.271995 134.025 11.1778 144.877C22.0994 155.729 39.2855 156.317 72.5308 156.356V94.6351C69.4227 100.821 64.643 106.024 58.7276 109.659C52.8123 113.295 45.9953 115.22 39.0412 115.219C37.4738 115.219 35.9706 114.6 34.8622 113.498C33.7539 112.396 33.1312 110.901 33.1312 109.343C33.1312 107.784 33.7539 106.289 34.8622 105.187C35.9706 104.085 37.4738 103.466 39.0412 103.466C44.8067 103.467 50.4039 101.534 54.9271 97.9788C59.4503 94.4238 62.6349 89.4551 63.9654 83.8768H-0.358398ZM84.3507 156.356C117.588 156.317 134.782 155.729 145.696 144.877C156.61 134.033 157.201 116.927 157.24 83.8768H92.9162C94.2467 89.4551 97.4312 94.4238 101.954 97.9788C106.478 101.534 112.075 103.467 117.84 103.466C119.408 103.466 120.911 104.085 122.019 105.187C123.128 106.289 123.75 107.784 123.75 109.343C123.75 110.901 123.128 112.396 122.019 113.498C120.911 114.6 119.408 115.219 117.84 115.219C110.886 115.22 104.069 113.295 98.1539 109.659C92.2386 106.024 87.4588 100.821 84.3507 94.6351V156.356ZM157.24 72.1234C157.201 39.0649 156.61 21.9676 145.696 11.1153C134.79 0.270771 117.588 -0.324737 84.3507 -0.356079V38.1481C87.8865 35.3344 91.9905 33.3113 96.3833 32.2166C113.349 28.001 128.723 43.2805 124.475 60.1506C123.378 64.5208 121.346 68.6045 118.518 72.1234H157.24Z" fill="white"/>
<path d="M57.6221 43.6251C61.8774 44.686 65.6549 47.129 68.3556 50.5668C71.0563 54.0047 72.5257 58.2405 72.5309 62.6029V72.1232H62.9568C58.5697 72.1181 54.3099 70.6569 50.8527 67.9714C47.3954 65.2859 44.9386 61.5296 43.8716 57.2982C43.3992 55.4096 43.4261 53.4316 43.9497 51.5563C44.4732 49.6811 45.4757 47.9724 46.8596 46.5962C48.2435 45.2201 49.9619 44.2233 51.8477 43.7027C53.7336 43.1821 55.7228 43.1553 57.6221 43.6251ZM84.3508 62.6029V72.1232H93.9249C102.947 72.1232 110.819 66.0114 113.01 57.2982C113.483 55.4088 113.456 53.4298 112.932 51.5537C112.408 49.6776 111.405 47.9683 110.02 46.5919C108.635 45.2155 106.916 44.2189 105.029 43.699C103.142 43.1791 101.152 43.1537 99.2517 43.6251C94.9978 44.6875 91.2221 47.1312 88.5229 50.5688C85.8238 54.0065 84.3555 58.2416 84.3508 62.6029Z" fill="white"/>
</g>
<defs>
<clipPath id="clip0_650_544">
<rect width="173" height="156" fill="white"/>
</clipPath>
</defs>
</svg>
