<svg width="74" height="83" viewBox="0 0 74 83" fill="none" xmlns="http://www.w3.org/2000/svg">
<path d="M12.1327 75.5054C6.82708 60.487 1.55766 32.3489 22.9252 39.9433C49.6347 49.4362 44.889 75.737 33.8965 67.7774C22.9039 59.8179 17.3515 27.9611 43.3551 22.2179" stroke="black" stroke-width="1.96437" stroke-linecap="round"/>
<path d="M72.3518 15.9212C71.5808 20.1885 68.2958 23.8382 64.7049 26.4219C61.1135 29.0059 56.9714 30.6996 54.1713 30.8839C53.2195 30.9465 52.2607 30.4498 51.8587 29.486C51.2286 27.9753 50.8565 25.5146 50.6963 22.7769C50.5339 20.0035 50.5832 16.8264 50.8562 13.812C51.1283 10.8084 51.6272 7.91174 52.3875 5.72308C52.7663 4.63275 53.23 3.65857 53.8062 2.93029C54.3833 2.20089 55.1586 1.61783 56.148 1.56694C57.4125 1.5019 58.3784 2.08484 59.0495 2.96687C59.6869 3.80472 60.0725 4.92 60.3175 6.05725C60.7978 8.28631 60.8142 10.9847 60.7661 12.948C61.861 12.3667 63.128 11.7318 64.4011 11.2137C65.7121 10.6802 67.0958 10.2426 68.3382 10.1451C69.5685 10.0486 70.8958 10.275 71.7472 11.3671C72.5643 12.4152 72.7041 13.9712 72.3518 15.9212Z" fill="white" stroke="black" stroke-width="1.96803" stroke-linecap="round"/>
</svg>
