<svg width="464" height="167" viewBox="0 0 464 167" fill="none" xmlns="http://www.w3.org/2000/svg">
<path fill-rule="evenodd" clip-rule="evenodd" d="M140.199 98.8292C133.837 98.8292 128.679 103.987 128.679 110.35H132.022C132.022 105.834 135.683 102.173 140.199 102.173V98.8292Z" fill="#EFF6FF"/>
<path fill-rule="evenodd" clip-rule="evenodd" d="M132.022 145.958V102.172H175.808V98.8292H132.022H128.678V102.172V145.958H132.022Z" fill="#EFF6FF"/>
<circle cx="130.773" cy="145.958" r="2.09463" transform="rotate(180 130.773 145.958)" fill="#EFF6FF"/>
<circle cx="175.808" cy="100.924" r="2.09463" transform="rotate(180 175.808 100.924)" fill="#EFF6FF"/>
<path fill-rule="evenodd" clip-rule="evenodd" d="M140.199 98.8292C133.837 98.8292 128.679 103.987 128.679 110.35H132.022C132.022 105.834 135.683 102.173 140.199 102.173V98.8292Z" fill="#EFF6FF"/>
<path fill-rule="evenodd" clip-rule="evenodd" d="M132.022 145.958V102.172H175.808V98.8292H132.022H128.678V102.172V145.958H132.022Z" fill="#EFF6FF"/>
<circle cx="130.773" cy="145.958" r="2.09463" transform="rotate(180 130.773 145.958)" fill="#EFF6FF"/>
<circle cx="175.808" cy="100.924" r="2.09463" transform="rotate(180 175.808 100.924)" fill="#EFF6FF"/>
<path fill-rule="evenodd" clip-rule="evenodd" d="M121.347 103.018C127.709 103.018 132.867 97.8605 132.867 91.498H129.524C129.524 96.0141 125.863 99.6752 121.347 99.6752V103.018Z" fill="#EFF6FF"/>
<path fill-rule="evenodd" clip-rule="evenodd" d="M129.523 55.8893V99.6752H85.7373V103.018H129.523H132.866V99.6752V55.8893H129.523Z" fill="#EFF6FF"/>
<circle cx="130.772" cy="55.8894" r="2.09463" fill="#EFF6FF"/>
<circle cx="85.7382" cy="100.924" r="2.09463" fill="#EFF6FF"/>
<path fill-rule="evenodd" clip-rule="evenodd" d="M132.866 110.493C132.867 110.445 132.867 110.397 132.867 110.35C132.867 103.987 127.709 98.8291 121.347 98.8291V102.172C125.863 102.172 129.524 105.833 129.524 110.35H132.866V110.493Z" fill="#EFF6FF"/>
<path fill-rule="evenodd" clip-rule="evenodd" d="M85.7383 102.172H129.524V145.958H132.868V102.172V98.8292H129.524L85.7383 98.8292V102.172Z" fill="#EFF6FF"/>
<circle cx="85.7382" cy="100.924" r="2.09463" transform="rotate(-90 85.7382 100.924)" fill="#EFF6FF"/>
<circle cx="130.772" cy="145.958" r="2.09463" transform="rotate(-90 130.772 145.958)" fill="#EFF6FF"/>
<path fill-rule="evenodd" clip-rule="evenodd" d="M128.679 91.3548C128.678 91.4025 128.678 91.4501 128.678 91.4979C128.678 97.8605 133.836 103.018 140.198 103.018V99.6751C135.682 99.6751 132.021 96.014 132.021 91.4979H128.679V91.3548Z" fill="#EFF6FF"/>
<path fill-rule="evenodd" clip-rule="evenodd" d="M175.808 99.6751H132.022V55.8893H128.678V99.6751V103.018H132.022H175.808V99.6751Z" fill="#EFF6FF"/>
<circle cx="175.808" cy="100.924" r="2.09463" transform="rotate(90 175.808 100.924)" fill="#EFF6FF"/>
<circle cx="130.773" cy="55.8893" r="2.09463" transform="rotate(90 130.773 55.8893)" fill="#EFF6FF"/>
<path d="M93.0693 77.3593C79.4543 68.9808 42.3793 42.379 3.00033 3.00002" stroke="#EFF6FF" stroke-width="4.17908" stroke-linecap="round" stroke-linejoin="round"/>
<path d="M461.085 136.878C420.506 163.644 323.269 188.794 167.428 119.252" stroke="#EFF6FF" stroke-width="4.17908" stroke-linecap="round" stroke-linejoin="round"/>
</svg>
