<svg width="40" height="41" viewBox="0 0 40 41" fill="none" xmlns="http://www.w3.org/2000/svg">
<g clip-path="url(#clip0_37_1267)">
<path d="M23.157 20.7841C23.1452 21.4053 22.9492 22.0089 22.5939 22.5186C22.2386 23.0282 21.7399 23.4209 21.1612 23.6468C20.5825 23.8727 19.9497 23.9217 19.3431 23.7876C18.7365 23.6535 18.1834 23.3424 17.7538 22.8935C17.3243 22.4447 17.0376 21.8784 16.9303 21.2665C16.8229 20.6546 16.8996 20.0246 17.1507 19.4563C17.4018 18.8881 17.816 18.4072 18.3407 18.0746C18.8654 17.742 19.4771 17.5726 20.0982 17.5881C20.9235 17.6186 21.7044 17.9694 22.2754 18.5661C22.8465 19.1627 23.1627 19.9583 23.157 20.7841Z" fill="black"/>
<path d="M25.4176 10.9607H14.7803C13.7278 10.9607 12.7184 11.3788 11.9741 12.1231C11.2298 12.8673 10.8117 13.8768 10.8117 14.9293V25.8058C10.8117 26.327 10.9144 26.843 11.1138 27.3245C11.3132 27.806 11.6056 28.2435 11.9741 28.612C12.3426 28.9806 12.7801 29.2729 13.2616 29.4723C13.7431 29.6718 14.2592 29.7744 14.7803 29.7744H25.4176C25.9388 29.7744 26.4548 29.6718 26.9363 29.4723C27.4178 29.2729 27.8553 28.9806 28.2238 28.612C28.5924 28.2435 28.8847 27.806 29.0841 27.3245C29.2836 26.843 29.3862 26.327 29.3862 25.8058V14.9489C29.3883 14.4263 29.2872 13.9083 29.0887 13.4248C28.8902 12.9413 28.5983 12.5017 28.2296 12.1312C27.861 11.7607 27.4228 11.4666 26.9402 11.2657C26.4577 11.0649 25.9403 10.9612 25.4176 10.9607ZM20.098 26.1038C19.045 26.1276 18.0088 25.8371 17.1216 25.2693C16.2344 24.7016 15.5365 23.8824 15.117 22.9163C14.6974 21.9502 14.5753 20.881 14.7661 19.8451C14.9568 18.8093 15.452 17.8538 16.1882 17.1005C16.9244 16.3473 17.8684 15.8305 18.8996 15.6161C19.9308 15.4017 21.0026 15.4995 21.978 15.8969C22.9534 16.2943 23.7883 16.9733 24.3762 17.8473C24.964 18.7212 25.2781 19.7506 25.2784 20.8038C25.2869 21.4922 25.1596 22.1754 24.9038 22.8145C24.6479 23.4536 24.2686 24.036 23.7874 24.5282C23.3062 25.0205 22.7327 25.4131 22.0996 25.6835C21.4665 25.9538 20.7863 26.0967 20.098 26.1038ZM25.8548 15.5058C25.7255 15.5058 25.5974 15.48 25.4781 15.4299C25.3588 15.3798 25.2507 15.3064 25.1601 15.214C25.0696 15.1216 24.9983 15.0121 24.9506 14.8918C24.9029 14.7716 24.8797 14.643 24.8823 14.5136C24.8823 14.2505 24.9868 13.9981 25.1729 13.8121C25.359 13.626 25.6113 13.5215 25.8745 13.5215C26.1376 13.5215 26.3899 13.626 26.576 13.8121C26.7621 13.9981 26.8666 14.2505 26.8666 14.5136C26.8705 14.6537 26.8441 14.793 26.7892 14.9219C26.7342 15.0508 26.6521 15.1663 26.5484 15.2605C26.4447 15.3548 26.3218 15.4255 26.1882 15.4678C26.0547 15.5101 25.9135 15.5231 25.7745 15.5058H25.8548Z" fill="black"/>
<path d="M20.0979 0.69983C14.8976 0.673829 9.89993 2.71471 6.20436 6.37351C2.50879 10.0323 0.418032 15.0093 0.39203 20.2096C0.366028 25.41 2.40691 30.4076 6.06571 34.1032C9.72451 37.7988 14.7015 39.8895 19.9018 39.9155C22.4768 39.9284 25.029 39.434 27.4129 38.4605C29.7968 37.487 31.9655 36.0535 33.7954 34.2418C35.6253 32.4302 37.0804 30.2759 38.0776 27.9018C39.0749 25.5278 39.5948 22.9807 39.6077 20.4057C39.6206 17.8308 39.1262 15.2785 38.1527 12.8947C37.1792 10.5108 35.7457 8.34202 33.934 6.51216C32.1224 4.6823 29.9681 3.22719 27.594 2.22991C25.22 1.23263 22.6729 0.712705 20.0979 0.69983ZM32.0058 25.6057C32.0112 26.4854 31.842 27.3574 31.508 28.1712C31.1739 28.985 30.6816 29.7244 30.0597 30.3465C29.4377 30.9686 28.6985 31.4611 27.8848 31.7954C27.0711 32.1297 26.1992 32.2992 25.3195 32.294H14.8803C14.0006 32.2994 13.1286 32.1302 12.3148 31.7962C11.501 31.4621 10.7616 30.9698 10.1395 30.3479C9.51736 29.7259 9.02487 28.9867 8.69058 28.173C8.35628 27.3593 8.18682 26.4873 8.19203 25.6077V15.1665C8.18657 14.2868 8.35577 13.4148 8.68982 12.601C9.02388 11.7872 9.51615 11.0478 10.1381 10.4257C10.76 9.80359 11.4993 9.3111 12.313 8.97681C13.1267 8.64251 13.9986 8.47305 14.8783 8.47826H25.3195C26.199 8.47306 27.0708 8.64245 27.8844 8.97662C28.6979 9.3108 29.4371 9.80311 30.059 10.425C30.6809 11.0469 31.1732 11.7861 31.5074 12.5997C31.8416 13.4132 32.011 14.285 32.0058 15.1645V25.6057Z" fill="black"/>
</g>
<defs>
<clipPath id="clip0_37_1267">
<rect width="40" height="40" fill="white" transform="translate(0 0.307678)"/>
</clipPath>
</defs>
</svg>
