<svg width="17" height="17" viewBox="0 0 17 17" fill="none" xmlns="http://www.w3.org/2000/svg">
<path fill-rule="evenodd" clip-rule="evenodd" d="M5.12458 15.4306C5.06326 15.4263 5.00194 15.423 4.94092 15.4175C4.59788 15.3853 4.28308 15.2733 4.00379 15.0714C3.52203 14.7223 3.2139 14.2582 3.09126 13.6744C3.04671 13.456 3.0317 13.2326 3.04663 13.0102C3.06322 12.7496 3.11405 12.4922 3.19781 12.2449C3.33108 11.8478 3.53174 11.4875 3.78583 11.1554C3.97716 10.9063 4.19375 10.6777 4.43213 10.4732C4.6543 10.28 4.86049 10.0692 5.04869 9.84272C5.2879 9.55889 5.50405 9.25805 5.71806 8.95508C5.90688 8.68733 6.09267 8.41776 6.29303 8.15912C6.44195 7.96253 6.60478 7.77688 6.78026 7.60358C7.00187 7.38896 7.24654 7.20742 7.53494 7.08933C7.74943 7.0014 7.97832 6.95386 8.21008 6.94908C8.47354 6.94261 8.73672 6.97047 8.99299 7.03196C9.37991 7.12639 9.73476 7.322 10.0212 7.59872C10.2222 7.78997 10.3922 8.00672 10.55 8.23319C10.7179 8.47362 10.8718 8.72285 11.0306 8.96905C11.2097 9.24621 11.3948 9.51912 11.6013 9.77715C11.8066 10.034 12.0344 10.2721 12.2819 10.4887C12.5816 10.7491 12.8479 11.0458 13.0745 11.3718C13.2689 11.6507 13.424 11.955 13.5353 12.2762C13.6221 12.5264 13.6736 12.7876 13.6883 13.0521C13.7096 13.4564 13.6398 13.8432 13.4561 14.2069C13.2861 14.5438 13.0402 14.8149 12.7318 15.0295C12.5047 15.1877 12.2597 15.3079 11.9902 15.3747C11.8947 15.3988 11.7976 15.4158 11.6996 15.4254C11.6861 15.4268 11.6727 15.4288 11.6596 15.4315C11.6468 15.4385 11.6328 15.433 11.6192 15.4345C11.608 15.4363 11.5964 15.4315 11.5858 15.4382H11.3344C11.3244 15.4312 11.3132 15.436 11.3026 15.4348H11.2494C11.0351 15.4278 10.8272 15.3832 10.6195 15.3349C10.2683 15.253 9.92374 15.1452 9.57403 15.0563C9.29173 14.9822 9.00469 14.9277 8.71492 14.8929C8.5141 14.8717 8.31196 14.8654 8.11021 14.8741C7.94931 14.8796 7.78903 14.9045 7.63056 14.9339C7.31788 14.9928 7.01158 15.0766 6.70497 15.1604C6.38076 15.2496 6.05655 15.338 5.72444 15.3923C5.58935 15.4142 5.45426 15.433 5.31674 15.4318C5.28851 15.4312 5.26058 15.4354 5.23205 15.4348C5.19562 15.4327 5.1601 15.4391 5.12428 15.4309M11.3202 1.52426C11.7719 1.5786 12.1173 1.8084 12.3812 2.17056C12.5618 2.41888 12.6756 2.69756 12.746 2.99537C12.8051 3.25101 12.8301 3.51334 12.8204 3.77555C12.8056 4.25437 12.6897 4.72466 12.4804 5.15558C12.3383 5.45691 12.1445 5.73103 11.9079 5.96551C11.6945 6.17437 11.4531 6.34133 11.1714 6.44546C10.9735 6.51831 10.7701 6.55474 10.5594 6.54199C10.1945 6.52105 9.88458 6.37594 9.62442 6.12276C9.40221 5.90662 9.25103 5.64494 9.14629 5.35564C9.07442 5.1538 9.02653 4.94421 9.00362 4.73119C8.98695 4.5855 8.98086 4.43879 8.9854 4.29222C8.99633 3.94656 9.05806 3.6104 9.17058 3.28376C9.2864 2.93746 9.46199 2.61413 9.68938 2.32842C9.88367 2.08738 10.1104 1.88338 10.3824 1.73281C10.5801 1.6213 10.7981 1.55049 11.0236 1.52456C11.0306 1.52062 11.0382 1.52244 11.0451 1.52183H11.0667C11.0773 1.52062 11.0882 1.52547 11.0977 1.51819H11.2458C11.2552 1.52578 11.2661 1.52062 11.2765 1.52183H11.2983C11.3053 1.52183 11.3129 1.52031 11.3202 1.52426ZM0.924366 6.86074C0.931348 6.72292 0.956241 6.58753 0.992366 6.45426C1.06279 6.19531 1.17754 5.95944 1.35665 5.75756C1.54918 5.53492 1.81087 5.38334 2.09979 5.3271C2.34022 5.27974 2.57762 5.29978 2.81076 5.37203C3.07912 5.4546 3.31621 5.59546 3.52719 5.77881C3.85444 6.06265 4.0894 6.41206 4.25181 6.81156C4.33681 7.02103 4.3956 7.23758 4.42819 7.46121C4.44397 7.56958 4.45156 7.67856 4.45399 7.78846C4.45914 7.99533 4.43606 8.20194 4.38538 8.40258C4.31647 8.67124 4.20051 8.91562 4.01594 9.12508C3.81253 9.36178 3.53138 9.51817 3.22301 9.56617C2.99047 9.60381 2.76188 9.57831 2.53846 9.50606C2.23792 9.40862 1.97988 9.24105 1.75281 9.02399C1.53414 8.81344 1.35339 8.56677 1.21853 8.29481C1.08376 8.02892 0.991959 7.74337 0.946527 7.44876L0.925277 7.29151C0.919813 7.26753 0.922241 7.24294 0.91617 7.21926C0.913438 7.20924 0.914956 7.19983 0.914652 7.18951C0.912831 7.17706 0.918598 7.1634 0.910706 7.15096V6.95849C0.922848 6.94089 0.916777 6.92146 0.917991 6.90264C0.919206 6.88867 0.915563 6.87349 0.924366 6.86074ZM4.0976 3.77737C4.09912 3.39547 4.15346 3.05153 4.28126 2.72003C4.37749 2.46958 4.50985 2.24069 4.69412 2.04367C4.89235 1.83056 5.12792 1.67817 5.41206 1.60622C5.69621 1.53428 5.97549 1.55462 6.24992 1.65388C6.49187 1.74192 6.70285 1.88005 6.89046 2.0546C7.18947 2.33267 7.40349 2.66872 7.55619 3.04546C7.65313 3.28487 7.72042 3.53228 7.75806 3.78769C7.77972 3.93239 7.79206 4.07811 7.7951 4.22483C7.79895 4.40949 7.78595 4.59412 7.75624 4.77642C7.69279 5.15771 7.56347 5.51289 7.33276 5.82678C7.19299 6.02179 7.01137 6.18308 6.80121 6.29883C6.56752 6.42709 6.30124 6.48368 6.0356 6.46155C5.79092 6.44303 5.56506 6.36288 5.35469 6.23812C5.08026 6.07571 4.85804 5.85653 4.67287 5.59849C4.45684 5.29356 4.29896 4.95137 4.20719 4.58912C4.15497 4.39027 4.12124 4.18703 4.1064 3.98197C4.09963 3.91399 4.09669 3.84568 4.0976 3.77737ZM16.0887 7.08478V7.1291C16.072 7.49733 15.9733 7.84371 15.8145 8.17399C15.6907 8.432 15.5279 8.66943 15.3319 8.87797C15.0784 9.14664 14.7842 9.3564 14.4342 9.48208C14.2269 9.55887 14.0063 9.59295 13.7855 9.58226C13.465 9.56849 13.1601 9.43983 12.9267 9.2198C12.7269 9.03401 12.5955 8.80572 12.5123 8.5489C12.4388 8.31979 12.4059 8.07959 12.4152 7.83915C12.4315 7.3073 12.5994 6.82401 12.8908 6.38171C12.9889 6.23229 13.102 6.09334 13.2284 5.96703C13.4886 5.70778 13.7861 5.50864 14.1385 5.3954C14.3365 5.33032 14.5453 5.30434 14.7533 5.3189C15.0659 5.33967 15.3613 5.46969 15.5878 5.68622C15.7991 5.88567 15.9326 6.13187 16.0131 6.40872C16.0577 6.56142 16.0838 6.71776 16.089 6.87713V6.92176C16.0874 6.97609 16.087 7.03045 16.0887 7.08478Z" fill="#D9D9D9"/>
</svg>
