<svg width="40" height="41" viewBox="0 0 40 41" fill="none" xmlns="http://www.w3.org/2000/svg">
<path d="M20 0.307678C8.96 0.307678 0 9.26768 0 20.3077C0 31.3477 8.96 40.3077 20 40.3077C31.04 40.3077 40 31.3477 40 20.3077C40 9.26768 31.04 0.307678 20 0.307678ZM29.28 13.9077C28.98 17.0677 27.68 24.7477 27.02 28.2877C26.74 29.7877 26.18 30.2877 25.66 30.3477C24.5 30.4477 23.62 29.5877 22.5 28.8477C20.74 27.6877 19.74 26.9677 18.04 25.8477C16.06 24.5477 17.34 23.8277 18.48 22.6677C18.78 22.3677 23.9 17.7077 24 17.2877C24.0139 17.2241 24.012 17.158 23.9946 17.0953C23.9772 17.0325 23.9447 16.975 23.9 16.9277C23.78 16.8277 23.62 16.8677 23.48 16.8877C23.3 16.9277 20.5 18.7877 15.04 22.4677C14.24 23.0077 13.52 23.2877 12.88 23.2677C12.16 23.2477 10.8 22.8677 9.78 22.5277C8.52 22.1277 7.54 21.9077 7.62 21.2077C7.66 20.8477 8.16 20.4877 9.1 20.1077C14.94 17.5677 18.82 15.8877 20.76 15.0877C26.32 12.7677 27.46 12.3677 28.22 12.3677C28.38 12.3677 28.76 12.4077 29 12.6077C29.2 12.7677 29.26 12.9877 29.28 13.1477C29.26 13.2677 29.3 13.6277 29.28 13.9077Z" fill="black"/>
</svg>
