<svg width="40" height="41" viewBox="0 0 40 41" fill="none" xmlns="http://www.w3.org/2000/svg">
<path d="M20 1.10773C9.39605 1.10773 0.800049 9.70373 0.800049 20.3077C0.800049 30.9117 9.39605 39.5077 20 39.5077C30.604 39.5077 39.2001 30.9117 39.2001 20.3077C39.2001 9.70373 30.604 1.10773 20 1.10773ZM27.3841 22.7697C27.3841 22.7697 29.0821 24.4457 29.5 25.2237C29.512 25.2411 29.5194 25.2544 29.522 25.2637C29.6914 25.5477 29.7334 25.7724 29.6481 25.9377C29.5081 26.2137 29.028 26.3497 28.864 26.3617H25.864C25.656 26.3617 25.22 26.3077 24.692 25.9437C24.286 25.6597 23.886 25.1937 23.496 24.7397C22.914 24.0637 22.41 23.4797 21.9021 23.4797C21.8375 23.4794 21.7734 23.4896 21.712 23.5097C21.328 23.6337 20.8361 24.1817 20.8361 25.6417C20.8361 26.0977 20.476 26.3597 20.222 26.3597H18.848C18.38 26.3597 15.942 26.1957 13.782 23.9177C11.138 21.1277 8.75805 15.5317 8.73805 15.4797C8.58805 15.1177 8.89805 14.9237 9.23605 14.9237H12.266C12.67 14.9237 12.802 15.1697 12.894 15.3877C13.002 15.6417 13.398 16.6517 14.048 17.7877C15.102 19.6397 15.748 20.3917 16.266 20.3917C16.3632 20.3906 16.4586 20.3659 16.544 20.3197C17.22 19.9437 17.094 17.5337 17.064 17.0337C17.064 16.9397 17.062 15.9557 16.716 15.4837C16.468 15.1417 16.046 15.0117 15.79 14.9637C15.8937 14.8207 16.0302 14.7048 16.188 14.6257C16.652 14.3937 17.4881 14.3597 18.3181 14.3597H18.7801C19.68 14.3717 19.9121 14.4297 20.2381 14.5117C20.8981 14.6697 20.9121 15.0957 20.854 16.5537C20.8361 16.9677 20.8181 17.4357 20.8181 17.9877L20.812 18.3717C20.792 19.1137 20.768 19.9557 21.292 20.3017C21.3596 20.3463 21.4391 20.3693 21.5201 20.3677C21.702 20.3677 22.25 20.3677 23.734 17.8217C24.19 17.0014 24.5877 16.1499 24.924 15.2737C24.9541 15.2217 25.042 15.0617 25.146 14.9997C25.2236 14.9629 25.3082 14.9431 25.394 14.9417H28.956C29.344 14.9417 29.6101 14.9997 29.66 15.1497C29.748 15.3877 29.644 16.1137 28.018 18.3157L27.292 19.2737C25.8181 21.2057 25.8181 21.3037 27.3841 22.7697Z" fill="black"/>
</svg>
