<svg width="58" height="52" viewBox="0 0 58 52" fill="none" xmlns="http://www.w3.org/2000/svg">
<path d="M41.238 3.69474C60.0513 8.04532 58.5001 30.9999 55.348 38.8227C51.9482 47.2602 39.5794 50.5198 28.3038 51.022C16.5001 51.5477 9.80487 46.9805 7.6993 45.1227C-2.29527 36.3039 0.695789 15.5132 5.10794 9.89408C11.9849 1.13592 17.7213 -1.74348 41.238 3.69474Z" fill="white" stroke="black" stroke-width="1.4" stroke-linecap="round"/>
<path d="M14.3751 10.9532C17.7972 12.9164 20.1622 17.59 21.38 20.1991C21.5304 20.5213 21.86 20.7189 22.2151 20.6997C28.0429 20.3849 39.1785 20.3388 44.0648 22.2706C50.3849 24.7692 48.6212 31.9712 45.2407 35.0577C39.4107 40.3808 22.0879 40.5252 18.3435 39.7611C11.1416 38.2913 10.8476 27.3845 10.8476 22.2706C10.9945 17.6652 11.6194 9.37231 14.3751 10.9532Z" stroke="black" stroke-width="1.4" stroke-linecap="round"/>
<path d="M21.9854 20.2216C22.367 17.7177 23.9943 12.9022 26.3492 10.8535C28.7042 8.80491 30.2469 16.1729 30.683 20.2132" stroke="black" stroke-width="1.4" stroke-linecap="round"/>
<path d="M22.7246 30.937C26.9451 32.7458 27.8473 28.8622 27.6133 26.8727C27.4135 25.175 25.9893 24.8262 23.5316 24.8262C21.0738 24.8262 18.447 29.1037 22.7246 30.937Z" fill="white" stroke="black" stroke-width="1.4" stroke-linecap="round"/>
<path d="M23.6723 27.5624C24.084 29.1313 25.7535 29.0617 26.9446 28.7155C27.3413 28.6002 27.5469 28.1833 27.4551 27.7805L27.1375 26.3869C27.0775 26.1234 26.8972 25.9033 26.6507 25.7924L24.7751 24.949C24.5982 24.8694 24.3937 24.8431 24.2287 24.945C23.7673 25.2298 23.2602 25.9919 23.6723 27.5624Z" fill="black" stroke="black" stroke-width="1.4" stroke-linecap="round"/>
<path d="M48.9391 19.9646C49.2764 22.9679 46.0519 26.3378 44.1853 27.0923C43.9273 27.1966 43.6382 27.1309 43.4696 26.9095C42.0447 25.0378 40.1188 17.3749 41.8517 16.7581C43.3388 16.2288 44.3487 18.5654 44.6677 19.7999C45.9399 18.5045 48.5752 16.724 48.9391 19.9646Z" fill="black" stroke="black" stroke-width="1.4" stroke-linecap="round"/>
</svg>
